<?xml version="1.0" encoding="UTF-8"?>
<!DOCTYPE svg PUBLIC "-//W3C//DTD SVG 1.1//EN" "http://www.w3.org/Graphics/SVG/1.1/DTD/svg11.dtd">
<svg xmlns="http://www.w3.org/2000/svg" version="1.1" width="854px" height="559px" style="shape-rendering:geometricPrecision; text-rendering:geometricPrecision; image-rendering:optimizeQuality; fill-rule:evenodd; clip-rule:evenodd" xmlns:xlink="http://www.w3.org/1999/xlink">
<g><path style="opacity:1" fill="#b46512" d="M 853.5,510.5 C 853.5,511.833 853.5,513.167 853.5,514.5C 839.035,528.465 824.701,542.631 810.5,557C 809.833,557.667 809.167,557.667 808.5,557C 751.986,500.32 695.32,443.82 638.5,387.5C 585.155,426.078 526.155,438.245 461.5,424C 391.318,404.644 341.818,361.477 313,294.5C 300.075,258.838 296.075,222.171 301,184.5C 306.717,142.963 323.383,106.63 351,75.5C 399.84,20.7638 461.006,-3.40289 534.5,3C 595.805,9.5623 645.305,37.0623 683,85.5C 722.577,139.241 735.243,198.908 721,264.5C 714.178,292.806 702.012,318.473 684.5,341.5C 740.521,398.188 796.854,454.521 853.5,510.5 Z M 512.5,66.5 C 570.682,68.5535 614.516,94.5535 644,144.5C 662.911,182.034 666.577,221.034 655,261.5C 638.918,306.505 608.751,338.005 564.5,356C 512.907,372.931 465.24,365.597 421.5,334C 374.518,294.49 356.351,244.323 367,183.5C 379.856,133.309 410.023,97.8093 457.5,77C 475.415,70.5824 493.748,67.0824 512.5,66.5 Z"/></g>
<g><path style="opacity:1" fill="#b36511" d="M 0.5,44.5 C 71.8333,44.5 143.167,44.5 214.5,44.5C 214.5,66.1667 214.5,87.8333 214.5,109.5C 143.167,109.5 71.8333,109.5 0.5,109.5C 0.5,87.8333 0.5,66.1667 0.5,44.5 Z"/></g>
<g><path style="opacity:1" fill="#b36511" d="M 0.5,268.5 C 71.8333,268.5 143.167,268.5 214.5,268.5C 214.5,290.167 214.5,311.833 214.5,333.5C 143.167,333.5 71.8333,333.5 0.5,333.5C 0.5,311.833 0.5,290.167 0.5,268.5 Z"/></g>
<g><path style="opacity:1" fill="#b36511" d="M 0.5,492.5 C 142.833,492.5 285.167,492.5 427.5,492.5C 427.5,514.167 427.5,535.833 427.5,557.5C 285.167,557.5 142.833,557.5 0.5,557.5C 0.5,535.833 0.5,514.167 0.5,492.5 Z"/></g>
</svg>
